Coordinates
version=1
nRows=16
nColumns=40
inDegrees=yes

Units are S.I. units (second, meters, Newtons, ...)
Angles are in degrees.

endheader
time	pelvis_tilt	pelvis_list	pelvis_rotation	pelvis_tx	pelvis_ty	pelvis_tz	hip_flexion_r	hip_adduction_r	hip_rotation_r	knee_angle_r	knee_angle_r_beta	ankle_angle_r	subtalar_angle_r	mtp_angle_r	hip_flexion_l	hip_adduction_l	hip_rotation_l	knee_angle_l	knee_angle_l_beta	ankle_angle_l	subtalar_angle_l	mtp_angle_l	lumbar_extension	lumbar_bending	lumbar_rotation	arm_flex_r	arm_add_r	arm_rot_r	elbow_flex_r	pro_sup_r	wrist_flex_r	wrist_dev_r	arm_flex_l	arm_add_l	arm_rot_l	elbow_flex_l	pro_sup_l	wrist_flex_l	wrist_dev_l
      1.70000000	     -1.33436747	      1.26134945	      1.30951555	      0.51999518	      0.96056798	      1.09289552	      1.84580461	     -0.82161295	    -20.73824453	    -14.18855131	     -0.24763694	      7.24434028	     -0.04419088	     -9.68990251	     22.23747065	      4.71764727	     19.39012203	    -24.92264372	     -0.43498219	      1.15029586	     12.44695682	     11.02263670	     -2.26031544	     -3.79074410	      7.70140783	      9.43450896	    -15.32886380	    -10.90027799	     26.75229860	     89.95437384	      0.00000000	      0.00000000	     -9.27066374	     11.40104115	     11.84232395	      7.75538917	     89.95437384	      0.00000000	      0.00000000
      1.71000000	     -1.53051378	      0.97551449	      1.38447432	      0.52652359	      0.95929521	      1.09269749	      1.54095327	     -0.48543834	    -21.08689477	    -14.04991096	     -0.24521721	      7.55116205	     -0.11424405	     -9.75160394	     23.12303016	      4.96441584	     20.01903326	    -23.64404363	     -0.41266641	      1.12664133	     12.38304356	     11.05294801	     -2.13404362	     -3.52385797	      7.70446140	      9.87933680	    -15.44894680	    -10.84431283	     26.94212389	     89.95437384	      0.00000000	      0.00000000	     -9.37751485	     11.46864921	     11.85499963	      7.50186682	     89.95437384	      0.00000000	      0.00000000
      1.72000000	     -1.60624619	      0.94873731	      1.24982622	      0.53341846	      0.95851504	      1.09251165	      1.12906530	     -0.43923731	    -20.87222118	    -13.99779412	     -0.24430760	      7.90417213	      0.02443514	     -9.92485944	     23.33237164	      4.86443789	     20.44342967	    -21.40900916	     -0.37365770	     -0.59523317	     10.95328875	     11.25522518	     -2.10750323	     -3.52380108	      7.92090993	     10.19615101	    -15.63411161	    -10.37192254	     27.14657474	     89.95437384	      0.00000000	      0.00000000	     -9.40460656	     11.52533170	     12.19839531	      7.23767720	     89.95437384	      0.00000000	      0.00000000
      1.73000000	     -1.11883450	      1.10199498	      0.97704066	      0.54090540	      0.95841376	      1.09234886	      0.05202473	     -0.68663932	    -21.17771726	    -13.95645991	     -0.24358618	      8.27542252	      0.71033896	    -10.50548697	     22.99636473	      4.80963993	     21.86875690	    -19.82517490	     -0.34601458	     -1.35375665	      9.24048499	     10.78757784	     -2.70191255	     -3.73735287	      8.11444881	     10.69061507	    -15.76314215	     -9.88872274	     27.24742243	     89.95437384	      0.00000000	      0.00000000	     -9.47683821	     11.53806090	     13.26908075	      7.10123810	     89.95437384	      0.00000000	      0.00000000
      1.74000000	     -1.27547388	      0.91138972	      1.00400551	      0.54772509	      0.95713437	      1.09174598	     -0.25723352	     -0.50895388	    -21.31574095	    -13.95965086	     -0.24364187	      8.52663301	      0.66267724	    -10.53436295	     23.77770441	      4.90883871	     22.20150967	    -19.00360554	     -0.33167549	     -1.50814516	      8.93076468	     10.75501101	     -2.60303519	     -3.55045426	      8.08845216	     11.05656297	    -15.83560867	     -9.81065322	     27.39670774	     89.95437384	      0.00000000	      0.00000000	     -9.55020082	     11.55954942	     13.26349770	      6.94242513	     89.95437384	      0.00000000	      0.00000000
      1.75000000	     -1.39428479	      0.89054195	      0.90055780	      0.55448357	      0.95599755	      1.09137365	     -0.53762810	     -0.50648013	    -21.06950471	    -14.07707647	     -0.24569133	      9.03253868	      0.71202639	    -10.70559922	     24.20164901	      4.84039856	     22.36660859	    -17.60979240	     -0.30734886	     -2.95447020	      7.09896788	     10.81667376	     -2.55312926	     -3.58324411	      8.19377071	     11.43210824	    -15.90431662	     -9.50673767	     27.42728584	     89.95437384	      0.00000000	      0.00000000	     -9.52017288	     11.63172016	     13.36023101	      6.58041661	     89.95437384	      0.00000000	      0.00000000
      1.76000000	     -1.05383931	      1.06474628	      0.57838957	      0.56221531	      0.95553405	      1.09112074	     -1.39477823	     -0.78768966	    -21.05023753	    -14.17720873	     -0.24743897	      9.37663467	      1.07384971	    -11.16185934	     24.13459474	      4.89785824	     23.90564057	    -16.84248467	     -0.29395681	     -3.80296216	      4.66173840	     10.25670596	     -2.95147403	     -3.82413373	      8.39911377	     11.79412733	    -15.92093001	     -9.26930740	     27.53781346	     89.95437384	      0.00000000	      0.00000000	     -9.61250182	     11.66614991	     13.79044094	      6.62273747	     89.95437384	      0.00000000	      0.00000000
      1.77000000	     -1.15675491	      0.98270238	      0.44338422	      0.56925398	      0.95421681	      1.09078719	     -1.68741546	     -0.75000695	    -21.07524003	    -14.30574581	     -0.24968237	      9.47409214	      1.01129551	    -11.10214285	     24.81188886	      4.95514543	     23.84705014	    -16.54035133	     -0.28868359	     -3.82786413	      4.48769529	     10.15087072	     -2.91373544	     -3.80572233	      8.47928006	     12.07269438	    -15.86219513	     -9.23446851	     27.74886772	     89.95437384	      0.00000000	      0.00000000	     -9.76155120	     11.75163811	     13.73266097	      6.64188446	     89.95437384	      0.00000000	      0.00000000
      1.78000000	     -1.16998324	      1.00970892	      0.41284571	      0.57676845	      0.95323338	      1.08995342	     -2.20965159	     -0.78609505	    -20.81264205	    -14.28589771	     -0.24933595	     10.01059594	      0.97387413	    -11.31281678	     25.01390545	      4.75502814	     23.69524550	    -15.58714542	     -0.27204701	     -4.64816387	      3.37248769	     10.08701522	     -2.90221829	     -3.88259645	      8.47370267	     12.40745831	    -15.76615027	     -9.37561877	     27.52406251	     89.95437384	      0.00000000	      0.00000000	     -9.68797231	     11.80999157	     13.43819621	      6.28978732	     89.95437384	      0.00000000	      0.00000000
      1.79000000	     -1.03996228	      1.13029569	      0.26472476	      0.58448951	      0.95242308	      1.08934516	     -2.86342029	     -0.95883000	    -20.68585585	    -14.32897730	     -0.25008783	     10.32768048	      0.91031675	    -11.48167915	     25.08772541	      4.56742892	     23.82242971	    -15.03001049	     -0.26232317	     -4.91502946	      2.83408686	      9.85346588	     -3.05244866	     -4.08714209	      8.57694130	     12.66545925	    -15.59412331	     -9.71228564	     27.45697918	     89.95437384	      0.00000000	      0.00000000	     -9.75099939	     11.91843846	     13.09700467	      6.32893159	     89.95437384	      0.00000000	      0.00000000
      1.80000000	     -1.12975596	      1.08048723	      0.14149368	      0.59209571	      0.95119302	      1.08863501	     -3.20239556	     -0.98115573	    -20.71865541	    -14.47009433	     -0.25255079	     10.43015747	      0.81677384	    -11.42123045	     25.52181557	      4.57577109	     23.78715403	    -14.89498568	     -0.25996654	     -4.83961355	      2.82829895	      9.72151435	     -2.96327570	     -4.08752916	      8.63130257	     12.74468894	    -15.49054840	     -9.68505857	     27.58581974	     89.95437384	      0.00000000	      0.00000000	     -9.82016546	     11.95863100	     13.02007486	      6.44397094	     89.95437384	      0.00000000	      0.00000000
      1.81000000	     -0.87089391	      1.27215260	      0.09056850	      0.60015808	      0.95065647	      1.08762166	     -4.08506516	     -1.22754852	    -20.62798073	    -14.39870698	     -0.25130484	     10.87609563	      0.74941045	    -11.62326837	     25.35475109	      4.21011185	     23.68794683	    -14.50459694	     -0.25315297	     -4.90164929	      3.07010507	      9.53797169	     -3.24011192	     -4.36665091	      8.61622370	     12.95399658	    -15.22928133	    -10.21469854	     27.43735824	     89.95437384	      0.00000000	      0.00000000	     -9.77433134	     12.06727950	     12.46539407	      6.27870994	     89.95437384	      0.00000000	      0.00000000
      1.82000000	     -0.95418221	      1.23926662	      0.00566158	      0.60803345	      0.94941898	      1.08666429	     -4.44869704	     -1.28529042	    -20.67321770	    -14.54026404	     -0.25377548	     10.95622685	      0.66315369	    -11.56124726	     25.65638206	      4.17426733	     23.69834212	    -14.49277336	     -0.25294661	     -4.83358806	      3.24521115	      9.41783154	     -3.12565937	     -4.38846127	      8.62343299	     12.97018240	    -15.08491004	    -10.24037371	     27.52908148	     89.95437384	      0.00000000	      0.00000000	     -9.86186669	     12.13551422	     12.32956119	      6.37638568	     89.95437384	      0.00000000	      0.00000000
      1.83000000	     -0.96759809	      1.26246463	     -0.03648972	      0.61612645	      0.94832945	      1.08550775	     -4.93985418	     -1.39669863	    -20.74058078	    -14.63491467	     -0.25542745	     11.15121348	      0.55875375	    -11.53997687	     25.83065733	      4.07674430	     23.74864481	    -14.54194888	     -0.25380489	     -4.79665455	      3.55164992	      9.32341353	     -3.06199498	     -4.47851226	      8.61020849	     12.94871338	    -14.92527130	    -10.34257964	     27.51703035	     89.95437384	      0.00000000	      0.00000000	     -9.88682794	     12.19367857	     12.16526011	      6.41401304	     89.95437384	      0.00000000	      0.00000000
      1.84000000	     -1.05305764	      1.25398939	     -0.13092162	      0.62429415	      0.94703498	      1.08446098	     -5.24307820	     -1.50429614	    -20.61296955	    -14.97579195	     -0.26137688	     11.07307578	      0.49187483	    -11.39573771	     26.04764073	      4.03569471	     23.55451933	    -14.77088749	     -0.25780062	     -4.75523670	      3.64467335	      9.17907758	     -2.92087044	     -4.53147561	      8.57090627	     12.83084584	    -14.72472133	    -10.33764249	     27.70430514	     89.95437384	      0.00000000	      0.00000000	    -10.04709429	     12.26180551	     12.07423577	      6.66092905	     89.95437384	      0.00000000	      0.00000000
      1.85000000	     -0.45828006	      1.98674078	      0.01445834	      0.63284816	      0.94722202	      1.08202219	     -6.52706920	     -2.61181205	    -21.76010030	    -15.01835126	     -0.26211968	     11.54527683	      1.68676862	    -12.39012574	     25.10528566	      2.67937847	     22.77716860	    -14.08843457	     -0.24588957	     -4.95908685	      6.63964604	      8.99612809	     -3.57110469	     -5.33967781	      8.55961066	     12.81127266	    -14.32138128	    -11.80643137	     27.50059473	     89.95437384	      0.00000000	      0.00000000	     -9.87261161	     12.50292546	      9.96841823	      6.73856456	     89.95437384	      0.00000000	      0.00000000
